<?xml version="1.0" encoding="utf-8"?>
<!-- Generator: Adobe Illustrator 16.0.0, SVG Export Plug-In . SVG Version: 6.00 Build 0)  -->
<!DOCTYPE svg PUBLIC "-//W3C//DTD SVG 1.1//EN" "http://www.w3.org/Graphics/SVG/1.1/DTD/svg11.dtd">
<svg version="1.1" id="Layer_1" xmlns="http://www.w3.org/2000/svg" xmlns:xlink="http://www.w3.org/1999/xlink" x="0px" y="0px"
	 width="256px" height="256px" viewBox="0 0 256 256" enable-background="new 0 0 256 256" xml:space="preserve">
<g>
	<path fill="#DC6460" d="M233.5,14.75c0,7.594-6.156,13.75-13.75,13.75H19.25c-7.594,0-13.75-6.156-13.75-13.75v-0.5
		C5.5,6.656,11.656,0.5,19.25,0.5h200.5c7.594,0,13.75,6.156,13.75,13.75V14.75z"/>
	<path fill="#DC6460" d="M233.5,70.75c0,7.594-6.156,13.75-13.75,13.75H19.25c-7.594,0-13.75-6.156-13.75-13.75v-0.5
		c0-7.594,6.156-13.75,13.75-13.75h200.5c7.594,0,13.75,6.156,13.75,13.75V70.75z"/>
	<path fill="#DC6460" d="M199.5,223.333c0,11.756-7.233,21.167-18.011,21.167h-2.684c-10.778,0-19.306-9.411-19.306-21.167v-99.644
		c0-11.758,8.527-21.189,19.306-21.189h2.684c10.777,0,18.011,9.431,18.011,21.189V223.333z"/>
	<path fill="#DC6460" d="M229.022,153.5c11.755,0,21.478,6.944,21.478,17.723v2.683c0,10.778-9.723,19.595-21.478,19.595h-99.645
		c-11.758,0-20.878-8.816-20.878-19.595v-2.683c0-10.778,9.12-17.723,20.878-17.723H229.022z"/>
	<path fill="#DC6460" d="M233.5,14.75c0,7.594-6.156,13.75-13.75,13.75H19.25c-7.594,0-13.75-6.156-13.75-13.75v-0.5
		C5.5,6.656,11.656,0.5,19.25,0.5h200.5c7.594,0,13.75,6.156,13.75,13.75V14.75z"/>
	<path fill="#DC6460" d="M233.5,70.75c0,7.594-6.156,13.75-13.75,13.75H19.25c-7.594,0-13.75-6.156-13.75-13.75v-0.5
		c0-7.594,6.156-13.75,13.75-13.75h200.5c7.594,0,13.75,6.156,13.75,13.75V70.75z"/>
	<path fill="#DC6460" d="M91.5,227.5H22.283c-7.594,0-16.783,6.211-16.783,13.806v0.944c0,7.595,9.189,14.25,16.783,14.25H91.5
		V227.5z"/>
	<path fill="#DC6460" d="M91.5,170.5H22.283c-7.594,0-16.783,6.322-16.783,13.917v0.944c0,7.594,9.189,14.139,16.783,14.139H91.5
		V170.5z"/>
	<path fill="#DC6460" d="M22.283,113.5c-7.594,0-16.783,6.433-16.783,14.028v0.944c0,7.594,9.189,14.028,16.783,14.028H91.5v-29
		H22.283z"/>
</g>
</svg>
