<?xml version="1.0" encoding="utf-8"?>
<!-- Generator: Adobe Illustrator 16.0.0, SVG Export Plug-In . SVG Version: 6.00 Build 0)  -->
<!DOCTYPE svg PUBLIC "-//W3C//DTD SVG 1.1//EN" "http://www.w3.org/Graphics/SVG/1.1/DTD/svg11.dtd">
<svg version="1.1" id="Layer_1" xmlns="http://www.w3.org/2000/svg" xmlns:xlink="http://www.w3.org/1999/xlink" x="0px" y="0px"
	 width="256px" height="256px" viewBox="-104 -104 256 256" enable-background="new -104 -104 256 256" xml:space="preserve">
<path fill="#7A7A7A" d="M-77.605,38.571L29.69-68.727c20.623-20.624,54.023-20.624,74.646,0c20.617,20.617,20.617,54.017,0,74.634
	L-12.294,122.534c-12.876,12.88-33.776,12.88-46.649,0.007c-12.876-12.879-12.876-33.779,0-46.652l97.963-97.97
	c5.135-5.128,13.53-5.128,18.658,0c5.129,5.128,5.135,13.53,0,18.658l-88.634,88.641l13.997,13.994l88.638-88.634
	c12.879-12.879,12.879-33.78,0-46.652c-12.873-12.873-33.78-12.873-46.653,0L-72.94,61.895
	c-20.621,20.617-20.617,54.017,0.003,74.641c20.617,20.617,54.02,20.623,74.64,0L118.331,19.907
	c28.361-28.368,28.361-74.267,0-102.627c-28.368-28.368-74.273-28.375-102.634-0.007L-91.602,24.571L-77.605,38.571z"/>
<path fill="none" d="M0,0h48v48H0V0z"/>
</svg>
