<?xml version="1.0" encoding="utf-8"?>
<!-- Generator: Adobe Illustrator 16.0.0, SVG Export Plug-In . SVG Version: 6.00 Build 0)  -->
<!DOCTYPE svg PUBLIC "-//W3C//DTD SVG 1.1//EN" "http://www.w3.org/Graphics/SVG/1.1/DTD/svg11.dtd">
<svg version="1.1" id="Layer_1" xmlns="http://www.w3.org/2000/svg" xmlns:xlink="http://www.w3.org/1999/xlink" x="0px" y="0px"
	 width="256px" height="256px" viewBox="0 0 256 256" enable-background="new 0 0 256 256" xml:space="preserve">
<g>
	<path fill-rule="evenodd" clip-rule="evenodd" fill="#FFFFFF" d="M12.806,0c76.816,0,153.545,0,230.37,0
		c0.011,0.338,0.059,0.641,0.059,0.955c0,7.931,0,15.873-0.032,23.812c0,0.492-0.186,1.069-0.483,1.468
		c-25.24,33.689-50.517,67.373-75.756,101.062c-0.372,0.505-0.766,0.731-1.42,0.731c-25.026-0.021-50.053-0.021-75.085,0
		c-0.649,0-1.037-0.218-1.42-0.726C63.788,93.612,38.529,59.939,13.279,26.25c-0.263-0.359-0.492-0.851-0.492-1.282
		C12.758,16.84,12.766,8.713,12.766,0.58C12.766,0.423,12.788,0.266,12.806,0z"/>
	<path fill-rule="evenodd" clip-rule="evenodd" fill="#FFFFFF" d="M89.583,140.872c25.673,0,51.2,0,76.769,0
		c0,38.373,0,76.681,0,115.128c-0.447-0.218-0.824-0.389-1.187-0.574c-24.883-12.441-49.779-24.899-74.684-37.325
		c-0.71-0.346-0.915-0.75-0.915-1.521c0.024-24.862,0.016-49.729,0.016-74.596C89.583,141.639,89.583,141.298,89.583,140.872z"/>
</g>
</svg>
