<?xml version="1.0" encoding="utf-8"?>
<!-- Generator: Adobe Illustrator 16.0.0, SVG Export Plug-In . SVG Version: 6.00 Build 0)  -->
<!DOCTYPE svg PUBLIC "-//W3C//DTD SVG 1.1//EN" "http://www.w3.org/Graphics/SVG/1.1/DTD/svg11.dtd">
<svg version="1.1" id="Layer_1" xmlns="http://www.w3.org/2000/svg" xmlns:xlink="http://www.w3.org/1999/xlink" x="0px" y="0px"
	 width="256px" height="256px" viewBox="0 0 256 256" enable-background="new 0 0 256 256" xml:space="preserve">
<g>
	<path fill-rule="evenodd" clip-rule="evenodd" fill="#DC6460" d="M95.313,41.6c0,12.155,0.291,23.753-0.25,35.316
		c-0.105,2.244-3.054,4.972-5.357,6.405c-25.457,15.859-39.483,46.28-34.118,74.549c5.972,31.472,28.899,54.758,59.404,60.326
		c34.693,6.334,69.539-13.613,81.805-46.822c12.359-33.467-1.318-71.46-32.495-88.85c-4.899-2.736-6.379-5.625-6.193-10.851
		c0.351-10.205,0.101-20.433,0.101-30.77c39.718,9.262,83.172,51.584,79.503,110.619c-3.649,58.66-50.313,103.244-106.248,104.45
		c-57.023,1.226-105.484-40.165-112.446-95.575C10.794,94.928,57.788,50.928,95.313,41.6z"/>
	<path fill-rule="evenodd" clip-rule="evenodd" fill="#DC6460" d="M107.91,60.136c-0.008-15.151-0.063-30.304,0.012-45.455
		c0.048-9.561,4.875-14.439,14.26-14.589c4.454-0.07,8.923-0.189,13.366,0.051c7.004,0.379,12.396,5.387,12.436,12.397
		c0.182,31.862,0.182,63.729-0.016,95.591c-0.036,6.609-5.295,11.722-11.964,12.22c-5.318,0.397-10.711,0.387-16.032,0.008
		c-7.276-0.518-11.961-5.821-12.018-13.429C107.835,91.333,107.917,75.734,107.91,60.136z"/>
</g>
</svg>
