<?xml version="1.0" encoding="utf-8"?>
<!-- Generator: Adobe Illustrator 16.0.0, SVG Export Plug-In . SVG Version: 6.00 Build 0)  -->
<!DOCTYPE svg PUBLIC "-//W3C//DTD SVG 1.1//EN" "http://www.w3.org/Graphics/SVG/1.1/DTD/svg11.dtd">
<svg version="1.1" id="Layer_1" xmlns="http://www.w3.org/2000/svg" xmlns:xlink="http://www.w3.org/1999/xlink" x="0px" y="0px"
	 width="256px" height="256px" viewBox="0 0 256 256" enable-background="new 0 0 256 256" xml:space="preserve">
<g>
	<g>
		<path fill-rule="evenodd" clip-rule="evenodd" fill="#FFFFFF" d="M76.586,188.593c0.787-23.367,6.757-43.833,25.193-59.14
			c-18.375-16.36-23.502-38.132-25.326-61.757c-4.333-0.194-8.782-0.103-13.147-0.669c-4.953-0.642-8.265-4.936-8.147-9.752
			c0.123-4.983,3.907-8.993,9.029-9.466c1.638-0.149,3.292-0.11,4.941-0.112c21.723-0.005,43.449-0.005,65.174-0.002
			c18.726,0,37.456-0.037,56.187,0.042c5.23,0.022,8.823,2.816,10.044,7.338c1.054,3.904-0.524,8.549-4.151,10.52
			c-2.011,1.09-4.5,1.551-6.819,1.757c-3.24,0.287-6.529,0.071-10.005,0.071c-1.857,23.48-6.838,45.363-25.059,61.767
			c16.362,15.194,21.745,27.875,25.063,59.404c3.279,0,6.652-0.063,10.024,0.015c6.937,0.147,11.388,4.196,11.245,10.133
			c-0.137,5.784-4.455,9.544-11.27,9.549c-41.049,0.034-82.105,0.034-123.157,0c-6.811-0.005-11.123-3.765-11.26-9.544
			c-0.14-5.976,4.267-9.99,11.233-10.143C69.649,188.529,72.924,188.593,76.586,188.593z M165.515,188.422
			c-0.848-6.029-1.167-11.569-2.456-16.873c-3.544-14.588-8.892-27.916-24.181-34.578c-5.657-2.466-5.441-12.772,0.27-15.382
			c10.034-4.588,15.549-12.792,19.544-22.405c4.156-10.002,6.515-20.385,6.171-31.498c-24.745,0-49.078,0-73.713,0
			c-0.539,8.564,0.863,16.62,3.463,24.429c4.152,12.449,9.721,23.882,22.777,29.613c3.799,1.669,3.745,5.368,3.662,8.921
			c-0.088,3.625-1.919,5.924-5.174,7.105c-6.204,2.255-10.623,6.593-14.164,11.946c-5.292,8.005-8.316,16.887-9.73,26.309
			c-0.608,4.044-0.797,8.152-1.189,12.412C115.895,188.422,140.128,188.422,165.515,188.422z"/>
		<path fill-rule="evenodd" clip-rule="evenodd" fill="#FFFFFF" d="M158.912,184.206c-20.716,0-40.88,0-61.973,0
			c0.46-4.235,0.642-8.349,1.397-12.354c1.718-9.098,4.914-17.593,11.419-24.48c3.544-3.75,7.657-6.073,13.118-5.607
			c3.721,0.313,7.585-0.422,11.21,0.26c3.647,0.682,7.893,1.652,10.461,4.024C155.505,156.187,158.274,169.647,158.912,184.206z"/>
	</g>
	<ellipse fill="#FF9638" cx="128" cy="128" rx="127.687" ry="128"/>
	<g>
		<path fill-rule="evenodd" clip-rule="evenodd" fill="#FFFFFF" d="M76.586,188.593c0.787-23.367,6.757-43.833,25.193-59.142
			c-18.375-16.358-23.502-38.127-25.326-61.755c-4.333-0.196-8.782-0.103-13.147-0.667c-4.953-0.647-8.265-4.941-8.147-9.755
			c0.123-4.98,3.907-8.99,9.029-9.466c1.638-0.152,3.292-0.112,4.941-0.112c21.723-0.005,43.449-0.005,65.174,0
			c18.726,0,37.456-0.04,56.187,0.039c5.23,0.02,8.823,2.813,10.044,7.338c1.054,3.907-0.524,8.549-4.151,10.52
			c-2.011,1.093-4.5,1.554-6.819,1.76c-3.24,0.284-6.529,0.068-10.005,0.068c-1.857,23.48-6.838,45.363-25.059,61.765
			c16.362,15.196,21.745,27.877,25.063,59.406c3.279,0,6.652-0.063,10.024,0.015c6.937,0.147,11.388,4.196,11.245,10.133
			c-0.137,5.784-4.455,9.544-11.27,9.549c-41.049,0.034-82.105,0.034-123.157,0c-6.811-0.005-11.123-3.765-11.26-9.544
			c-0.14-5.976,4.267-9.99,11.233-10.143C69.649,188.529,72.924,188.593,76.586,188.593z M165.515,188.422
			c-0.848-6.029-1.167-11.569-2.456-16.873c-3.544-14.588-8.892-27.916-24.181-34.578c-5.657-2.466-5.441-12.774,0.27-15.382
			c10.034-4.588,15.549-12.794,19.544-22.402c4.156-10.005,6.515-20.387,6.171-31.5c-24.745,0-49.078,0-73.713,0
			c-0.539,8.564,0.863,16.618,3.463,24.432c4.152,12.446,9.721,23.882,22.777,29.608c3.799,1.671,3.745,5.373,3.662,8.922
			c-0.088,3.627-1.919,5.926-5.174,7.107c-6.204,2.255-10.623,6.593-14.164,11.946c-5.292,8.005-8.316,16.887-9.73,26.309
			c-0.608,4.044-0.797,8.152-1.189,12.412C115.895,188.422,140.128,188.422,165.515,188.422z"/>
		<path fill-rule="evenodd" clip-rule="evenodd" fill="#FFFFFF" d="M158.912,184.206c-20.716,0-40.88,0-61.973,0
			c0.46-4.235,0.642-8.349,1.397-12.354c1.718-9.098,4.914-17.593,11.419-24.48c3.544-3.75,7.657-6.073,13.118-5.607
			c3.721,0.313,7.585-0.422,11.21,0.26c3.647,0.682,7.893,1.652,10.461,4.024C155.505,156.187,158.274,169.647,158.912,184.206z"/>
	</g>
</g>
</svg>
