<?xml version="1.0" encoding="utf-8"?>
<!-- Generator: Adobe Illustrator 16.0.0, SVG Export Plug-In . SVG Version: 6.00 Build 0)  -->
<!DOCTYPE svg PUBLIC "-//W3C//DTD SVG 1.1//EN" "http://www.w3.org/Graphics/SVG/1.1/DTD/svg11.dtd">
<svg version="1.1" id="Layer_1" xmlns="http://www.w3.org/2000/svg" xmlns:xlink="http://www.w3.org/1999/xlink" x="0px" y="0px"
	 width="256px" height="256px" viewBox="0 0 256 256" enable-background="new 0 0 256 256" xml:space="preserve">
<g>
	<g>
		<path fill="#DC6460" d="M242.324,146.039c-0.6-0.589-1.355-0.889-2.289-0.889h-17.033c-1.121-5.517-3.254-10.295-6.365-14.351
			h23.199c0.934,0,1.689-0.289,2.289-0.892c0.6-0.595,0.9-1.361,0.9-2.289v-10.161c0-0.928-0.301-1.695-0.9-2.289
			c-0.6-0.6-1.355-0.9-2.289-0.9h-82.867c-0.922,0-1.688,0.3-2.289,0.9c-0.588,0.594-0.889,1.361-0.889,2.289V130.7
			c0,0.866,0.313,1.611,0.945,2.244c0.633,0.634,1.377,0.944,2.232,0.944h14.445c14.012,0,22.91,3.756,26.689,11.25h-41.135
			c-0.922,0-1.688,0.3-2.289,0.9c-0.588,0.6-0.889,1.366-0.889,2.289v10.166c0,0.923,0.289,1.689,0.889,2.289
			c0.602,0.601,1.367,0.889,2.289,0.889h42.533c-1.467,5.444-4.865,9.601-10.211,12.456c-5.344,2.855-12.4,4.277-21.166,4.277
			h-11.156c-0.855,0-1.6,0.322-2.232,0.944c-0.633,0.634-0.945,1.378-0.945,2.245v12.655c0,0.855,0.289,1.589,0.889,2.188
			c12.756,13.545,29.279,32.5,49.602,56.867c0.6,0.8,1.432,1.2,2.488,1.2h19.422c1.4,0,2.355-0.601,2.889-1.801
			c0.668-1.188,0.533-2.321-0.4-3.389c-19.389-23.767-34.621-41.556-45.711-53.378c11.289-1.333,20.445-4.978,27.49-10.955
			c7.033-5.978,11.322-13.744,12.844-23.312h16.732c0.934,0,1.689-0.288,2.289-0.889c0.602-0.6,0.9-1.366,0.9-2.289v-10.155
			C243.225,147.405,242.926,146.639,242.324,146.039z"/>
	</g>
	<path fill="#DC6460" d="M240.5,14.75c0,7.594-6.156,13.75-13.75,13.75H26.25c-7.594,0-13.75-6.156-13.75-13.75v-0.5
		c0-7.594,6.156-13.75,13.75-13.75h200.5c7.594,0,13.75,6.156,13.75,13.75V14.75z"/>
	<path fill="#DC6460" d="M240.5,70.75c0,7.594-6.156,13.75-13.75,13.75H26.25c-7.594,0-13.75-6.156-13.75-13.75v-0.5
		c0-7.594,6.156-13.75,13.75-13.75h200.5c7.594,0,13.75,6.156,13.75,13.75V70.75z"/>
	<path fill="#DC6460" d="M97.5,227.5H29.145c-7.595,0-16.645,6.211-16.645,13.806v0.944c0,7.595,9.05,14.25,16.645,14.25H97.5V227.5
		z"/>
	<path fill="#DC6460" d="M97.5,170.5H29.145c-7.595,0-16.645,6.322-16.645,13.917v0.944c0,7.594,9.05,14.139,16.645,14.139H97.5
		V170.5z"/>
	<path fill="#DC6460" d="M29.145,113.5c-7.595,0-16.645,6.433-16.645,14.028v0.944c0,7.594,9.05,14.028,16.645,14.028H97.5v-29
		H29.145z"/>
</g>
</svg>
