<?xml version="1.0" encoding="utf-8"?>
<!-- Generator: Adobe Illustrator 16.0.0, SVG Export Plug-In . SVG Version: 6.00 Build 0)  -->
<!DOCTYPE svg PUBLIC "-//W3C//DTD SVG 1.1//EN" "http://www.w3.org/Graphics/SVG/1.1/DTD/svg11.dtd">
<svg version="1.1" id="Layer_1" xmlns="http://www.w3.org/2000/svg" xmlns:xlink="http://www.w3.org/1999/xlink" x="0px" y="0px"
	 width="256px" height="256px" viewBox="0 0 256 256" enable-background="new 0 0 256 256" xml:space="preserve">
<g>
	<circle fill="#F14735" cx="128" cy="128" r="128"/>
	<path fill="#FFFFFF" d="M128,39.02c-49.076,0-89.002,39.917-89.002,88.98S78.924,216.98,128,216.98s89.002-39.917,89.002-88.98
		S177.076,39.02,128,39.02z M196.875,128c0,13.446-3.932,25.966-10.615,36.578L91.268,69.816
		c10.646-6.75,23.221-10.718,36.732-10.718C165.976,59.098,196.875,90.007,196.875,128z M59.125,128
		c0-13.446,3.929-25.963,10.612-36.579l94.995,94.76c-10.645,6.75-23.224,10.721-36.732,10.721
		C90.022,196.902,59.125,165.995,59.125,128z"/>
</g>
</svg>
