<?xml version="1.0" encoding="utf-8"?>
<!-- Generator: Adobe Illustrator 16.0.0, SVG Export Plug-In . SVG Version: 6.00 Build 0)  -->
<!DOCTYPE svg PUBLIC "-//W3C//DTD SVG 1.1//EN" "http://www.w3.org/Graphics/SVG/1.1/DTD/svg11.dtd">
<svg version="1.1" id="Layer_1" xmlns="http://www.w3.org/2000/svg" xmlns:xlink="http://www.w3.org/1999/xlink" x="0px" y="0px"
	 width="256px" height="256px" viewBox="-104 -104 256 256" enable-background="new -104 -104 256 256" xml:space="preserve">
<path fill="#FFFFFF" d="M78.958,57.005H67.396l-4.104-3.953C77.641,36.364,86.276,14.703,86.276-8.862
	C86.276-61.409,43.683-104-8.862-104C-61.409-104-104-61.409-104-8.862c0,52.544,42.591,95.138,95.138,95.138
	c23.567,0,45.226-8.636,61.914-22.984l3.953,4.104v11.563L130.188,152L152,130.188L78.958,57.005z M-8.862,57.005
	c-36.445,0-65.865-29.422-65.865-65.867c0-36.445,29.419-65.865,65.865-65.865c36.445,0,65.867,29.419,65.867,65.865
	C57.005,27.583,27.583,57.005-8.862,57.005z"/>
</svg>
