<?xml version="1.0" encoding="utf-8"?>
<!-- Generator: Adobe Illustrator 16.0.0, SVG Export Plug-In . SVG Version: 6.00 Build 0)  -->
<!DOCTYPE svg PUBLIC "-//W3C//DTD SVG 1.1//EN" "http://www.w3.org/Graphics/SVG/1.1/DTD/svg11.dtd">
<svg version="1.1" id="Layer_1" xmlns="http://www.w3.org/2000/svg" xmlns:xlink="http://www.w3.org/1999/xlink" x="0px" y="0px"
	 width="256px" height="256px" viewBox="-104 -104 256 256" enable-background="new -104 -104 256 256" xml:space="preserve">
<path fill="#DC6460" d="M119.129,36.543c0.51-4.091,0.898-8.192,0.898-12.543c0-4.354-0.389-8.446-0.898-12.542l27.01-21.12
	c2.431-1.923,3.075-5.378,1.538-8.194l-25.602-44.287c-1.537-2.816-4.994-3.841-7.813-2.816L82.395-52.159
	c-6.654-5.123-13.824-9.343-21.633-12.543L55.9-98.625c-0.389-3.072-3.075-5.375-6.271-5.375h-51.2
	c-3.199,0-5.888,2.303-6.271,5.375l-4.867,33.923c-7.806,3.2-14.973,7.548-21.63,12.543L-66.212-64.96
	c-2.944-1.151-6.271,0-7.806,2.816l-25.601,44.287c-1.665,2.816-0.896,6.271,1.535,8.194l27.011,21.12
	C-71.587,15.554-71.97,19.774-71.97,24c0,4.224,0.383,8.452,0.896,12.543l-27.011,21.122c-2.431,1.921-3.072,5.372-1.535,8.191
	l25.601,44.287c1.535,2.819,4.989,3.846,7.806,2.819l31.873-12.798c6.657,5.117,13.825,9.335,21.63,12.537l4.867,33.926
	C-7.459,149.702-4.771,152-1.571,152h51.2c3.196,0,5.883-2.298,6.271-5.372l4.861-33.926c7.809-3.202,14.979-7.553,21.633-12.537
	l31.867,12.798c2.952,1.148,6.276,0,7.813-2.819l25.602-44.287c1.537-2.819,0.893-6.271-1.538-8.191L119.129,36.543z M24.03,68.798
	c-24.705,0-44.801-20.096-44.801-44.798S-0.675-20.801,24.03-20.801c24.695,0,44.795,20.099,44.795,44.801
	S48.725,68.798,24.03,68.798z"/>
</svg>
