<?xml version="1.0" encoding="utf-8"?>
<!-- Generator: Adobe Illustrator 16.0.0, SVG Export Plug-In . SVG Version: 6.00 Build 0)  -->
<!DOCTYPE svg PUBLIC "-//W3C//DTD SVG 1.1//EN" "http://www.w3.org/Graphics/SVG/1.1/DTD/svg11.dtd">
<svg version="1.1" id="Layer_1" xmlns="http://www.w3.org/2000/svg" xmlns:xlink="http://www.w3.org/1999/xlink" x="0px" y="0px"
	 width="256px" height="256px" viewBox="-104 -104 256 256" enable-background="new -104 -104 256 256" xml:space="preserve">
<path fill="#FFFFFF" d="M66.665-104l32.707,32.708L58.276-30.474l20.197,20.197l40.819-41.106L152-18.667V-104H66.665z M-104-18.667
	l32.713-32.715l40.813,41.106l20.2-20.197l-41.104-40.819L-18.667-104H-104V-18.667z M-18.667,152l-32.71-32.707l41.104-40.819
	l-20.2-20.197l-40.813,41.096L-104,66.665V152H-18.667z M152,66.665l-32.707,32.707L78.474,58.276L58.276,78.474l41.096,40.819
	L66.665,152H152V66.665z"/>
</svg>
